<?xml version="1.0" standalone="no"?>
<!DOCTYPE svg PUBLIC "-//W3C//DTD SVG 20010904//EN"
 "http://www.w3.org/TR/2001/REC-SVG-20010904/DTD/svg10.dtd">
<svg version="1.0" xmlns="http://www.w3.org/2000/svg"
 width="500.000000pt" height="135.000000pt" viewBox="0 0 500.000000 135.000000"
 preserveAspectRatio="xMidYMid meet">

<g transform="translate(0.000000,135.000000) scale(0.100000,-0.100000)"
fill="#000000" stroke="none">
<path d="M632 1158 c-14 -14 -16 -107 -3 -127 17 -27 31 1 31 64 0 65 -8 83
-28 63z"/>
<path d="M253 1144 c-7 -19 73 -104 99 -104 30 0 20 23 -30 73 -52 51 -60 55
-69 31z"/>
<path d="M960 1105 c-45 -46 -51 -55 -36 -61 13 -5 31 7 67 42 47 46 55 64 33
71 -5 2 -34 -21 -64 -52z"/>
<path d="M547 974 c-3 -4 -23 -9 -44 -11 -45 -5 -73 -29 -77 -66 -1 -15 -14
-36 -29 -47 -14 -11 -28 -34 -32 -50 -4 -17 -20 -43 -36 -59 -30 -30 -36 -55
-20 -80 7 -10 1 -22 -20 -42 -32 -30 -36 -51 -15 -91 13 -25 12 -28 -23 -62
-28 -28 -45 -36 -73 -36 -29 0 -43 -8 -77 -45 -22 -24 -41 -53 -41 -63 0 -29
66 -112 89 -112 25 0 20 24 -13 60 -20 22 -36 44 -36 48 0 14 65 72 81 72 16
0 279 -260 279 -276 0 -18 -59 -74 -78 -74 -10 0 -31 14 -47 30 -16 17 -35 30
-42 30 -25 0 -13 -32 24 -66 54 -50 89 -47 143 12 36 40 42 51 37 79 -5 29 0
38 42 79 45 44 49 46 106 46 57 0 61 -2 106 -46 42 -42 47 -50 42 -80 -5 -30
0 -39 39 -79 73 -73 79 -70 251 103 101 102 147 155 147 171 0 12 -19 42 -44
69 -37 38 -49 46 -79 45 -28 -1 -42 7 -73 38 -30 30 -35 42 -26 51 29 29 0
118 -38 118 -5 0 -10 14 -10 30 0 29 -29 70 -50 70 -5 0 -10 14 -10 30 0 29
-29 70 -50 70 -5 0 -10 13 -10 28 0 51 -18 62 -141 88 -123 25 -142 27 -152
18z m101 -49 c23 -4 42 -10 42 -14 0 -4 -14 -20 -31 -37 l-30 -29 -35 38 c-35
37 -37 62 -6 53 10 -2 36 -8 60 -11z m-114 -34 c25 -39 74 -81 96 -81 6 0 10
-11 8 -27 -2 -21 -9 -29 -27 -31 -18 -3 -38 10 -82 54 -59 58 -71 88 -47 112
19 19 26 15 52 -27z m266 -19 c0 -10 -13 -31 -30 -47 -16 -16 -30 -35 -30 -42
0 -18 35 -16 50 3 8 8 25 14 39 12 38 -4 38 -37 1 -73 -16 -16 -30 -34 -30
-41 0 -21 28 -23 46 -3 25 28 68 22 72 -10 3 -16 -7 -34 -29 -57 -28 -29 -30
-34 -15 -40 10 -4 25 1 36 11 26 23 64 16 68 -14 3 -16 -7 -34 -28 -56 -21
-21 -30 -40 -27 -50 6 -13 10 -13 27 -3 18 11 24 8 57 -25 l38 -37 -105 -105
c-58 -58 -108 -105 -112 -105 -5 0 -24 16 -44 36 l-35 37 21 21 c39 43 19 62
-27 26 -21 -16 -41 -20 -100 -20 l-74 0 -55 -52 -55 -52 -107 107 -107 107 37
37 c30 30 44 37 79 37 38 1 46 5 67 36 13 19 33 38 44 43 26 9 47 36 48 60 0
10 8 17 20 17 24 0 60 37 60 62 0 11 7 18 20 18 34 0 62 40 58 83 -3 34 1 43
39 78 36 33 46 38 63 29 11 -6 20 -19 20 -28z m-271 -118 c38 -42 38 -77 2
-82 -17 -3 -36 9 -72 44 -51 51 -62 86 -32 103 21 11 54 -10 102 -65z m-90
-78 c48 -49 52 -79 10 -84 -20 -2 -35 8 -68 43 -35 38 -40 48 -31 65 17 31 42
24 89 -24z m-60 -100 c31 -33 24 -61 -13 -61 -38 0 -76 46 -56 70 18 22 43 19
69 -9z m784 -214 c15 -15 27 -34 27 -41 0 -17 -265 -281 -281 -281 -16 0 -79
60 -79 74 0 21 264 276 285 276 12 0 33 -13 48 -28z"/>
<path d="M826 391 c-7 -11 18 -33 27 -24 4 3 7 12 7 20 0 15 -26 18 -34 4z"/>
<path d="M207 174 c-14 -14 -7 -35 11 -32 9 2 17 10 17 17 0 16 -18 25 -28 15z"/>
</g>
</svg>
